<svg width="68" height="68" viewBox="0 0 68 68" fill="none" xmlns="http://www.w3.org/2000/svg">
<path d="M45.3337 45.3333L34.0003 34L22.667 45.3333" stroke="#FFD25F" stroke-width="2" stroke-linecap="round" stroke-linejoin="round"/>
<path d="M34 34V59.5" stroke="#FFD25F" stroke-width="2" stroke-linecap="round" stroke-linejoin="round"/>
<path d="M57.7718 52.1049C60.5353 50.5983 62.7183 48.2144 63.9764 45.3293C65.2345 42.4442 65.4961 39.2224 64.7197 36.1722C63.9434 33.122 62.1733 30.4172 59.689 28.4846C57.2047 26.5521 54.1476 25.502 51.0001 25.4999H47.4301C46.5725 22.1827 44.9741 19.1032 42.755 16.4927C40.5359 13.8822 37.7539 11.8088 34.6181 10.4283C31.4823 9.04774 28.0744 8.39606 24.6505 8.52221C21.2266 8.64836 17.8758 9.54906 14.8501 11.1566C11.8244 12.7641 9.20255 15.0367 7.18156 17.8034C5.16057 20.57 3.79309 23.7589 3.18191 27.1302C2.57073 30.5014 2.73176 33.9674 3.6529 37.2674C4.57404 40.5675 6.23132 43.6158 8.50013 46.1832" stroke="#FFD25F" stroke-width="2" stroke-linecap="round" stroke-linejoin="round"/>
<path d="M45.3337 45.3333L34.0003 34L22.667 45.3333" stroke="#FFD25F" stroke-width="2" stroke-linecap="round" stroke-linejoin="round"/>
</svg>
